<?xml version="1.0" encoding="UTF-8" standalone="no"?>
<svg width="32px" height="32px" viewBox="0 0 32 32" version="1.1" xmlns="http://www.w3.org/2000/svg" xmlns:xlink="http://www.w3.org/1999/xlink" xmlns:sketch="http://www.bohemiancoding.com/sketch/ns">
    <!-- Generator: Sketch 3.3.2 (12043) - http://www.bohemiancoding.com/sketch -->
    <title>32x32</title>
    <desc>Created with Sketch.</desc>
    <defs>
        <path id="path-1" d="M13.8668018,36.0532758 C16.6008977,36.0532758 25.7502838,28.0275634 25.7502838,18.1273454 C25.7502838,8.22712738 17.1038612,0.201414949 13.8668018,0.201414949 C10.6297425,0.201414949 1.98331986,8.22712738 1.98331986,18.1273454 C1.98331986,28.0275634 11.1327059,36.0532758 13.8668018,36.0532758 Z"></path>
    </defs>
    <g id="Page-1" stroke="none" stroke-width="1" fill="none" fill-rule="evenodd" sketch:type="MSPage">
        <g id="32x32" sketch:type="MSArtboardGroup">
            <g id="Mask-+-Rectangle-30-+-Rectangle-30-Copy-2" sketch:type="MSLayerGroup" transform="translate(14.891579, 15.841539) rotate(-303.000000) translate(-14.891579, -15.841539) translate(2.000000, -3.000000)">
                <mask id="mask-2" sketch:name="Mask" fill="white">
                    <use xlink:href="#path-1"></use>
                </mask>
                <use id="Mask" fill="#4990E2" sketch:type="MSShapeGroup" xlink:href="#path-1"></use>
                <path d="M15.9869091,8.54356666 L15.9869091,12.0027614 L9.96220453,12.0027618 C9.77700509,12.0027618 9.60288596,12.0502328 9.44301295,12.1431109 C9.28155703,12.2359891 9.14067882,12.3598266 9.02037833,12.5166875 C8.90007785,12.6735483 8.80510378,12.8572407 8.73703903,13.0677644 C8.66897428,13.2762243 8.63573335,13.5032597 8.63573335,13.7447429 C8.63573335,13.9862261 8.66897428,14.2132615 8.73703903,14.4217214 C8.80510378,14.6322451 8.90007785,14.8159375 9.02037833,14.9727983 C9.14067882,15.1296592 9.28155703,15.2514328 9.44301295,15.340183 C9.60288596,15.4289332 9.77700509,15.4743403 9.96220453,15.4743403 L19.9709767,15.342247 L19.9709767,18.8117616 L9.96220453,18.9438549 C9.77700509,18.9438549 9.60288596,18.989262 9.44301295,19.0780122 C9.28155703,19.1667624 9.14067882,19.2905999 9.02037833,19.4474608 C8.90007785,19.6043217 8.80510378,19.788014 8.73703903,19.9964738 C8.66897428,20.2069976 8.63573335,20.4319691 8.63573335,20.6734523 C8.63573335,20.9169994 8.66897428,21.1419709 8.73703903,21.3504307 C8.80510378,21.5609545 8.90007785,21.7446468 9.02037833,21.9015077 C9.14067882,22.0583686 9.28155703,22.1822061 9.44301295,22.2709563 C9.60288596,22.3597065 9.77700509,22.4030497 9.96220453,22.4030497 L26.0005255,22.4030497 L26.0005255,25.8746282 L9.96220453,25.8746282 C9.41135492,25.8746282 8.89374624,25.7384069 8.40779558,25.4700923 C7.92342782,25.1997137 7.49921031,24.8282011 7.13830885,24.3576186 C6.77582448,23.884972 6.49090227,23.3318311 6.28512512,22.7002597 C6.07776506,22.0666244 5.97329358,21.3917099 5.97329358,20.6734523 C5.97329358,20.0294972 6.06193605,19.4082456 6.23763808,18.8117615 C6.41492301,18.2152775 6.6697701,17.6786482 7.00376225,17.2039377 C6.6697701,16.7271632 6.41492301,16.1946619 6.23763808,15.6002418 C6.06193605,15.0078856 5.97329358,14.388698 5.97329358,13.7447429 C5.97329358,13.0264853 6.07776506,12.3515708 6.28512512,11.7199994 C6.49090227,11.0863641 6.77582448,10.5332232 7.13830885,10.0626406 C7.49921031,9.58999403 7.92342782,9.22054543 8.40779558,8.95016684 C8.89374624,8.67978825 9.41135492,8.54356697 9.96220453,8.54356697" id="Imported-Layers-Copy-2" fill="#FFFFFF" sketch:type="MSShapeGroup" mask="url(#mask-2)"></path>
                <rect id="Rectangle-30" fill="#FFFFFF" sketch:type="MSShapeGroup" mask="url(#mask-2)" x="5.00454409" y="29.6079975" width="17.7245155" height="2.21556444"></rect>
                <rect id="Rectangle-30-Copy" fill="#FFFFFF" sketch:type="MSShapeGroup" mask="url(#mask-2)" x="5.00454409" y="3.42405413" width="17.7245155" height="2.21556444"></rect>
            </g>
        </g>
    </g>
</svg>